<svg version="1.1" xmlns="http://www.w3.org/2000/svg" >
<title></title>
<symbol id="vector" viewBox="0 0 768 1024">
<path d="M495.13 783.967c-5.42 5.424-11.853 9.724-18.937 12.661-7.084 2.933-14.676 4.443-22.341 4.443s-15.258-1.51-22.341-4.443c-7.080-2.937-13.517-7.237-18.937-12.661l-335.798-335.744c-48.431-49.419-75.403-115.956-75.053-185.149s27.992-135.454 76.92-184.383c48.928-48.928 115.188-76.57 184.383-76.92s135.728 26.622 185.151 75.053l212.228 212.228c10.92 10.976 17.031 25.84 16.991 41.322s-6.228 30.315-17.203 41.235c-10.975 10.92-25.841 17.031-41.322 16.991-15.484-0.040-30.314-6.228-41.234-17.203l-211.964-212.228c-27.383-27.383-64.523-42.767-103.249-42.767s-75.866 15.384-103.249 42.767c-27.383 27.383-42.767 64.523-42.767 103.249s15.384 75.866 42.767 103.249l335.799 335.798c10.953 10.92 17.126 25.746 17.156 41.22 0.029 15.47-6.085 30.318-16.998 41.282z"></path>
<path d="M658.333 947.171c-49.295 49.167-116.078 76.782-185.699 76.782-69.625 0-136.407-27.615-185.701-76.782l-211.963-212.228c-5.882-5.307-10.622-11.754-13.932-18.951s-5.12-14.994-5.319-22.912c-0.2-7.921 1.215-15.799 4.157-23.153s7.351-14.032 12.958-19.628c5.607-5.595 12.294-9.991 19.655-12.921s15.24-4.326 23.159-4.114c7.919 0.216 15.711 2.041 22.902 5.365s13.629 8.075 18.924 13.97l211.963 212.228c27.425 27.059 64.439 42.174 102.967 42.043 38.528-0.128 75.44-15.488 102.682-42.734 27.246-27.242 42.606-64.154 42.734-102.682 0.132-38.528-14.983-75.542-42.043-102.967l-335.799-335.957c-10.948-10.948-17.098-25.796-17.098-41.278s6.151-30.331 17.098-41.279c10.948-10.948 25.796-17.098 41.278-17.098s30.331 6.15 41.279 17.098l335.798 335.797c49.181 49.287 76.804 116.074 76.804 185.702 0 69.625-27.622 136.411-76.804 185.699z"></path>
</symbol>
<symbol id="icon-ok" viewBox="0 0 32 32">
<path d="M16 0c-8.816 0-16 7.184-16 16s7.184 16 16 16c8.816 0 16-7.184 16-16s-7.184-16-16-16zM23.648 12.32l-9.072 9.072c-0.224 0.224-0.528 0.352-0.848 0.352s-0.624-0.128-0.848-0.352l-4.528-4.528c-0.464-0.464-0.464-1.232 0-1.696s1.232-0.464 1.696 0l3.68 3.68 8.224-8.224c0.464-0.464 1.232-0.464 1.696 0s0.464 1.216 0 1.696z"></path>
</symbol>
<symbol id="icon-x" viewBox="0 0 32 32">
<path d="M16 0c-8.816 0-16 7.184-16 16s7.184 16 16 16c8.816 0 16-7.184 16-16s-7.184-16-16-16zM21.376 19.68c0.464 0.464 0.464 1.232 0 1.696-0.24 0.24-0.544 0.352-0.848 0.352s-0.608-0.112-0.848-0.352l-3.68-3.68-3.68 3.68c-0.24 0.24-0.544 0.352-0.848 0.352s-0.608-0.112-0.848-0.352c-0.464-0.464-0.464-1.232 0-1.696l3.68-3.68-3.68-3.68c-0.464-0.464-0.464-1.232 0-1.696s1.232-0.464 1.696 0l3.68 3.68 3.68-3.68c0.464-0.464 1.232-0.464 1.696 0s0.464 1.232 0 1.696l-3.68 3.68 3.68 3.68z"></path>
</symbol>
<symbol id="icon-arrow-right" viewBox="0 0 32 32">
<path d="M19.414 27.414l10-10c0.781-0.781 0.781-2.047 0-2.828l-10-10c-0.781-0.781-2.047-0.781-2.828 0s-0.781 2.047 0 2.828l6.586 6.586h-19.172c-1.105 0-2 0.895-2 2s0.895 2 2 2h19.172l-6.586 6.586c-0.39 0.39-0.586 0.902-0.586 1.414s0.195 1.024 0.586 1.414c0.781 0.781 2.047 0.781 2.828 0z"></path>
</symbol>
<symbol id="icon-arrow-left" viewBox="0 0 32 32">
<path d="M12.586 27.414l-10-10c-0.781-0.781-0.781-2.047 0-2.828l10-10c0.781-0.781 2.047-0.781 2.828 0s0.781 2.047 0 2.828l-6.586 6.586h19.172c1.105 0 2 0.895 2 2s-0.895 2-2 2h-19.172l6.586 6.586c0.39 0.39 0.586 0.902 0.586 1.414s-0.195 1.024-0.586 1.414c-0.781 0.781-2.047 0.781-2.828 0z"></path>
</symbol>
<symbol id="icon-burger" viewBox="0 0 47 32">
<path stroke="#2E2F42" stroke-linecap="round" stroke-miterlimit="4" stroke-width="4.3636" d="M1.961 29.153h42.966M1.961 15.615h42.966M1.961 2.077h42.966"></path>
</symbol>
<symbol id="icon-up-arrow" viewBox="0 0 32 32">
<path d="M28.751 25.626c-0.868 0-1.684-0.339-2.298-0.952l-10.454-10.455-10.454 10.454c-0.613 0.614-1.429 0.952-2.298 0.952s-1.685-0.338-2.298-0.952c-1.267-1.267-1.267-3.328 0-4.595l12.752-12.753c0.613-0.614 1.429-0.952 2.297-0.952s1.684 0.338 2.298 0.952l12.752 12.753c0.614 0.614 0.952 1.429 0.952 2.298 0 0.867-0.338 1.684-0.952 2.298s-1.429 0.952-2.297 0.952zM15.999 12.177l11.475 11.476c0.682 0.682 1.87 0.682 2.553 0 0.342-0.342 0.529-0.795 0.529-1.277s-0.188-0.935-0.529-1.277l-12.784-12.784c-0.682-0.651-1.849-0.641-2.519 0.031l-12.753 12.753c-0.704 0.704-0.704 1.849 0 2.553 0.682 0.682 1.872 0.682 2.553 0l11.475-11.475z"></path>
</symbol>
</svg>
