<svg aria-hidden="true" style="position: absolute; width: 0; height: 0; overflow: hidden;" version="1.1" xmlns="http://www.w3.org/2000/svg" xmlns:xlink="http://www.w3.org/1999/xlink">
<defs>
<symbol id="icon-quovo2" viewBox="0 0 28 32">
<path d="M7.932 0.82c0.216-0.216 0.471-0.387 0.753-0.504s0.584-0.177 0.889-0.177 0.607 0.060 0.889 0.177c0.282 0.117 0.538 0.288 0.753 0.504l13.356 13.353c1.926 1.966 2.999 4.612 2.985 7.364s-1.113 5.387-3.059 7.333c-1.946 1.946-4.581 3.045-7.333 3.059s-5.398-1.059-7.364-2.985l-8.441-8.441c-0.434-0.437-0.677-1.028-0.676-1.643s0.248-1.206 0.684-1.64c0.437-0.434 1.028-0.677 1.643-0.676s1.206 0.248 1.64 0.684l8.43 8.441c1.089 1.089 2.566 1.701 4.106 1.701s3.017-0.612 4.107-1.701c1.089-1.089 1.701-2.566 1.701-4.107s-0.612-3.017-1.701-4.107l-13.356-13.356c-0.436-0.434-0.681-1.024-0.682-1.639s0.242-1.206 0.676-1.642z"></path>
</symbol>
<symbol id="icon-quovo" viewBox="0 0 29 32">
<path d="M4.365 3.056c1.961-1.956 4.617-3.054 7.386-3.054s5.425 1.098 7.386 3.054l8.43 8.441c0.234 0.211 0.422 0.467 0.554 0.754s0.204 0.596 0.212 0.911c0.008 0.315-0.048 0.628-0.165 0.921s-0.292 0.558-0.515 0.781c-0.223 0.223-0.489 0.397-0.782 0.514s-0.606 0.172-0.921 0.164c-0.315-0.009-0.625-0.081-0.911-0.213s-0.542-0.321-0.753-0.556l-8.43-8.441c-1.091-1.076-2.563-1.677-4.095-1.672s-3 0.616-4.084 1.7c-1.084 1.083-1.695 2.552-1.7 4.084s0.596 3.005 1.672 4.095l13.356 13.362c0.435 0.435 0.68 1.026 0.68 1.642s-0.245 1.206-0.68 1.642c-0.435 0.435-1.026 0.68-1.642 0.68s-1.206-0.245-1.642-0.68l-13.356-13.356c-1.956-1.96-3.055-4.617-3.055-7.386s1.099-5.425 3.055-7.386z"></path>
</symbol>
</defs>
</svg>